ply
format ascii 1.0
element vertex 46
property float x
property float y
property float z
property uchar diffuse_red
property uchar diffuse_green
property uchar diffuse_blue
end_header
-1 -1 -1 0 255 0
0.973299 -0.0459319 -0.224899 255 0 255
2.28668 -0.15866 -0.0632814 0 255 0
3.24837 -0.282166 0.0784817 255 0 255
4.30581 -0.514568 0.49994 255 0 255
5.47741 -0.570648 0.0643925 255 0 255
6.79257 -0.922161 0.777392 0 255 0
7.543 -1.20006 1.27377 0 255 0
8.52933 -1.49634 1.60892 255 0 255
9.56665 -1.913 2.32396 0 255 0
10.0782 -2.33666 3.14325 0 255 0
10.5438 -2.77942 4.15917 255 0 255
11.098 -3.43102 5.39139 255 0 255
11.2355 -4.00215 6.63863 0 255 0
11.3286 -4.43394 7.52563 0 255 0
11.0021 -4.86193 8.63642 0 255 0
10.6424 -5.30355 9.59164 0 255 0
9.97029 -5.61471 10.4506 255 0 255
9.32348 -5.91813 11.2318 0 255 0
8.67082 -6.19143 11.962 0 255 0
7.87839 -6.47714 12.7191 0 255 0
7.23873 -6.70091 13.5284 255 0 255
6.07421 -6.87876 14.3072 255 0 255
4.54923 -6.88333 15.0216 255 0 255
2.86517 -7.02707 15.693 0 255 0
1.28691 -7.02751 15.9857 255 0 255
-0.527491 -7.31838 16.5033 0 255 0
-2.06341 -7.05356 16.3712 0 255 0
-3.62023 -6.58842 15.641 0 255 0
-4.86702 -6.08203 14.7005 0 255 0
-6.23894 -5.83796 14.1098 0 255 0
-7.24756 -5.25898 13.3086 0 255 0
-7.69971 -4.53989 11.6672 0 255 0
-7.98041 -3.92342 10.4991 0 255 0
-7.78522 -3.35334 9.19315 0 255 0
-7.44923 -2.78329 7.91168 0 255 0
-6.88032 -2.34249 6.80956 0 255 0
-6.18745 -1.96342 5.90365 0 255 0
-5.33217 -1.57828 4.97247 0 255 0
-4.14002 -1.32098 4.27197 0 255 0
-3.19582 -1.0474 3.63687 0 255 0
-2.05172 -0.847268 2.997 0 255 0
-0.898843 -0.651215 2.22356 0 255 0
0.282013 -0.579232 1.82524 0 255 0
1.43684 -0.271648 0.576273 0 255 0
3.96152 1.50307 8.76941 0 255 0
